<svg id="Layer_1" data-name="Layer 1" xmlns="http://www.w3.org/2000/svg" xmlns:xlink="http://www.w3.org/1999/xlink" viewBox="0 0 1244.4 600"><defs><style>.cls-1{fill:url(#linear-gradient);}.cls-2{fill:#927a7a;}.cls-3{fill:url(#linear-gradient-2);}.cls-4{fill:url(#linear-gradient-3);}.cls-5{fill:url(#linear-gradient-4);}.cls-6{fill:#198f7b;}.cls-7{fill:url(#linear-gradient-5);}.cls-8{fill:#0d927a;}.cls-9{fill:url(#linear-gradient-6);}.cls-10{fill:#4f9a8a;}.cls-11{fill:url(#linear-gradient-7);}.cls-12{fill:#59bba9;}.cls-13{fill:url(#linear-gradient-8);}.cls-14{fill:url(#linear-gradient-9);}.cls-15{fill:url(#linear-gradient-10);}.cls-16{fill:#469586;}.cls-17{fill:url(#linear-gradient-11);}.cls-18{fill:url(#linear-gradient-12);}.cls-19{fill:#1d6c5d;}.cls-20{fill:url(#linear-gradient-13);}.cls-21{fill:url(#linear-gradient-14);}.cls-22{fill:#0b1b18;}.cls-23{fill:url(#linear-gradient-15);}.cls-24{fill:url(#linear-gradient-16);}.cls-25{fill:url(#linear-gradient-17);}.cls-26{fill:#174139;}.cls-27{fill:url(#linear-gradient-18);}.cls-28{fill:#589d8f;}.cls-29{fill:url(#linear-gradient-19);}</style><linearGradient id="linear-gradient" x1="622.2" y1="604.377" x2="622.2" y2="5.469" gradientUnits="userSpaceOnUse"><stop offset="0.3855" stop-color="#f0a24d"/><stop offset="0.7931" stop-color="#eb7337"/><stop offset="1" stop-color="#e9592b"/></linearGradient><linearGradient id="linear-gradient-2" x1="409.3623" y1="229.3017" x2="564.3523" y2="410.9306" gradientUnits="userSpaceOnUse"><stop offset="0" stop-color="#fcfcfc"/><stop offset="0.1177" stop-color="#f2f2f2"/><stop offset="0.3917" stop-color="#e0dfdf"/><stop offset="0.6792" stop-color="#d5d5d5"/><stop offset="1" stop-color="#d2d1d1"/></linearGradient><linearGradient id="linear-gradient-3" x1="1090.2858" y1="268.7691" x2="721.8765" y2="655.3382" gradientUnits="userSpaceOnUse"><stop offset="0" stop-color="#a68b8a" stop-opacity="0.5"/><stop offset="0.5056" stop-color="#a68b8b"/><stop offset="0.5751" stop-color="#a68b8b" stop-opacity="0.9636"/><stop offset="0.6686" stop-color="#a68b8b" stop-opacity="0.8605"/><stop offset="0.7758" stop-color="#a68b8b" stop-opacity="0.6909"/><stop offset="0.8923" stop-color="#a68b8b" stop-opacity="0.4566"/><stop offset="1" stop-color="#a68b8b" stop-opacity="0.2"/></linearGradient><linearGradient id="linear-gradient-4" x1="738.9458" y1="151.4995" x2="1023.6893" y2="511.12" xlink:href="#linear-gradient-2"/><linearGradient id="linear-gradient-5" x1="497.2707" y1="685.1663" x2="555.9886" y2="475.6862" gradientUnits="userSpaceOnUse"><stop offset="0" stop-color="#14987e"/><stop offset="0.2947" stop-color="#22a288"/><stop offset="0.847" stop-color="#46bca4"/><stop offset="1" stop-color="#51c4ac"/></linearGradient><linearGradient id="linear-gradient-6" x1="31.79" y1="224.6905" x2="31.79" y2="399.2983" gradientUnits="userSpaceOnUse"><stop offset="0" stop-color="#3fbb9f"/><stop offset="0.232" stop-color="#3fb59b"/><stop offset="0.5433" stop-color="#40a48f"/><stop offset="0.8303" stop-color="#418e80"/></linearGradient><linearGradient id="linear-gradient-7" x1="113.3827" y1="207.5737" x2="113.3827" y2="372.5348" gradientUnits="userSpaceOnUse"><stop offset="0" stop-color="#38b99a"/><stop offset="0.2257" stop-color="#38b396"/><stop offset="0.5292" stop-color="#39a28a"/><stop offset="0.8756" stop-color="#3a8676"/><stop offset="1" stop-color="#3a7a6e"/></linearGradient><linearGradient id="linear-gradient-8" x1="239.6152" y1="285.6166" x2="239.6152" y2="436.9968" gradientUnits="userSpaceOnUse"><stop offset="0" stop-color="#3fbb9f"/><stop offset="0.2794" stop-color="#3fb59b"/><stop offset="0.6544" stop-color="#40a48f"/><stop offset="1" stop-color="#418e80"/></linearGradient><linearGradient id="linear-gradient-9" x1="315.0477" y1="300.6875" x2="315.0477" y2="439.956" xlink:href="#linear-gradient-7"/><linearGradient id="linear-gradient-10" x1="767.9914" y1="354.8362" x2="767.9914" y2="531.5653" xlink:href="#linear-gradient-8"/><linearGradient id="linear-gradient-11" x1="850.6558" y1="370.9969" x2="850.6558" y2="535.4581" xlink:href="#linear-gradient-7"/><linearGradient id="linear-gradient-12" x1="1103.8582" y1="363.4845" x2="1103.8582" y2="480.9764" xlink:href="#linear-gradient-8"/><linearGradient id="linear-gradient-13" x1="1159.4051" y1="375.3691" x2="1159.4051" y2="482.728" xlink:href="#linear-gradient-7"/><linearGradient id="linear-gradient-14" x1="1147.4287" y1="241.0309" x2="1147.4287" y2="344.6608" xlink:href="#linear-gradient-8"/><linearGradient id="linear-gradient-15" x1="1202.8913" y1="250.5509" x2="1202.8913" y2="345.1532" gradientUnits="userSpaceOnUse"><stop offset="0" stop-color="#259888"/><stop offset="0.2234" stop-color="#279283"/><stop offset="0.5239" stop-color="#2c8174"/><stop offset="0.8669" stop-color="#35655d"/><stop offset="1" stop-color="#395852"/></linearGradient><linearGradient id="linear-gradient-16" x1="1176.1783" y1="280.7463" x2="1177.9047" y2="338.8689" gradientUnits="userSpaceOnUse"><stop offset="0" stop-color="#469b88"/><stop offset="0.3111" stop-color="#459583"/><stop offset="0.7287" stop-color="#448476"/><stop offset="1" stop-color="#42756b"/></linearGradient><linearGradient id="linear-gradient-17" x1="953.2541" y1="333.1324" x2="953.2541" y2="417.9152" gradientUnits="userSpaceOnUse"><stop offset="0.3883" stop-color="#34937e"/><stop offset="1" stop-color="#537a72"/></linearGradient><linearGradient id="linear-gradient-18" x1="1006.6215" y1="340.8853" x2="1006.6215" y2="419.7827" gradientUnits="userSpaceOnUse"><stop offset="0" stop-color="#358e79"/><stop offset="0.1997" stop-color="#358875"/><stop offset="0.4684" stop-color="#377768"/><stop offset="0.775" stop-color="#395b54"/><stop offset="0.8212" stop-color="#395650"/></linearGradient><linearGradient id="linear-gradient-19" x1="957.5594" y1="537.4015" x2="957.8761" y2="584.2692" gradientUnits="userSpaceOnUse"><stop offset="0" stop-color="#4a2a2a"/><stop offset="0.4208" stop-color="#4a2a2a" stop-opacity="0.9705"/><stop offset="0.6226" stop-color="#4a2a2a" stop-opacity="0.8687"/><stop offset="0.7777" stop-color="#4a2a2a" stop-opacity="0.6932"/><stop offset="0.9083" stop-color="#4a2a2a" stop-opacity="0.4457"/><stop offset="1" stop-color="#4a2a2a" stop-opacity="0.2"/></linearGradient></defs><title>drawing</title><rect class="cls-1" width="1244.4" height="600"/><path class="cls-2" d="M716.85,600H142.34L423.21,214.04c.02-.03.04-.07.06-.1l5.43-7.46a.6078.6078,0,0,1,.05-.06L567.21,395.57Z"/><path class="cls-3" d="M567.21,395.57c-34.55,2.21-52.54-17.61-60.64-38.27-8.1-20.65-24.3-34.02-34.83-37.67-10.53-3.64-35.24-2.83-55.09-39.69-14.36-26.68-1.59-53.26,6.56-65.9.02-.03.04-.07.06-.1a73.1159,73.1159,0,0,1,5.43-7.46.6078.6078,0,0,1,.05-.06Z"/><path class="cls-4" d="M1218.04,600H400.89L801.52,107.72l6.82-8.39.03-.03,289.01,353.23Z"/><path class="cls-5" d="M1097.38,452.53c-10.28,18.15-39.6,28.39-106.53,15.5C808.22,432.86,802.8,388.66,805.96,366.57c3.16-22.1,25.71-34.28,22.55-58.63s-27.96-41.94-46-77.56c-28.03-50.74,4.06-102.78,19.01-122.66,3.83-5.09,6.53-8.07,6.82-8.39l.03-.03Z"/><path class="cls-6" d="M1244.4,600V287.2063s-101.7183,74.318-156.1342,99.0067c-13.604,5.7943-18.8944,6.802-27.46-1.0077s-21.1617-18.3833-70.0353-4.2791-106.8164,39.74-162.24,65.0888-124.7031,64.6492-180.1267,68.1761V600Z"/><path class="cls-7" d="M1128.64,600H0V291.9266S4.3,294.35,11.2,298.23c10.01,5.63,25.92,14.56,43.7,24.45,35.53,19.76,78.57,43.39,97.23,52.38,34.43,16.61,41.72,17.82,46.17,8.1,4.46-9.72,7.29-23.89,100.04,2.84s157.56,57.51,243.42,90.32c85.86,32.8,164.44,46.17,225.19,34.83s93.16-50.63,138.92-46.98c45.77,3.64,95.99,38.47,137.71,68.04S1128.64,600,1128.64,600Z"/><polygon class="cls-8" points="208.89 600 0 600 0 548.771 208.89 600"/><polygon class="cls-9" points="63.58 369.65 0 369.65 0.004 358.036 11.2 298.23 30.91 192.94 54.9 322.68 63.58 369.65"/><rect class="cls-10" x="25.6643" y="368.8873" width="11.1232" height="42.976"/><polygon class="cls-11" points="145.751 355.098 81.014 355.098 113.383 217.533 145.751 355.098"/><rect class="cls-10" x="108.0917" y="354.7871" width="10.5819" height="48.2412"/><polygon class="cls-12" points="42.421 364.124 108.092 364.124 75.257 257.06 42.421 364.124"/><rect class="cls-10" x="70.4325" y="362.2567" width="10.5819" height="48.5524"/><polygon class="cls-13" points="268.416 436.997 210.815 436.997 240.429 285.617 268.416 436.997"/><rect class="cls-10" x="235.9348" y="436.3433" width="9.5288" height="36.8158"/><polygon class="cls-14" points="342.375 425.235 287.721 425.235 315.048 309.096 342.375 425.235"/><rect class="cls-10" x="310.5808" y="424.9725" width="8.9338" height="40.7276"/><polygon class="cls-12" points="253.041 432.402 309.121 432.402 281.081 340.973 253.041 432.402"/><rect class="cls-10" x="276.9611" y="430.8072" width="9.0366" height="41.462"/><polygon class="cls-15" points="801.615 531.565 734.368 531.565 768.941 354.836 801.615 531.565"/><rect class="cls-16" x="763.6947" y="530.8025" width="11.1244" height="42.9806"/><polygon class="cls-17" points="882.926 518.075 818.386 518.075 850.656 380.926 882.926 518.075"/><rect class="cls-16" x="845.3808" y="517.7642" width="10.5499" height="48.095"/><polygon class="cls-12" points="778.548 526.986 844.376 526.986 811.462 419.666 778.548 526.986"/><rect class="cls-10" x="806.6265" y="525.1145" width="10.6073" height="48.6686"/><polygon class="cls-18" points="1126.211 480.976 1081.505 480.976 1104.489 363.484 1126.211 480.976"/><rect class="cls-19" x="1096.4625" y="480.4693" width="7.3957" height="28.5741"/><polygon class="cls-20" points="1181.493 471.38 1137.317 471.38 1159.405 381.851 1181.493 471.38"/><rect class="cls-19" x="1158.2111" y="471.1776" width="7.2212" height="31.396"/><polygon class="cls-12" points="1111.456 477.76 1155.461 477.76 1133.459 406.017 1111.456 477.76"/><rect class="cls-19" x="1130.2259" y="476.5088" width="7.0909" height="32.5346"/><polygon class="cls-21" points="1168.329 344.661 1126.528 344.661 1148.019 241.031 1168.329 344.661"/><rect class="cls-22" x="1141.2158" y="339.6048" width="8.1795" height="29.8115"/><polygon class="cls-23" points="1223.408 335.154 1182.375 335.154 1202.891 256.262 1223.408 335.154"/><rect class="cls-22" x="1202.8913" y="334.9753" width="6.7073" height="27.6655"/><polygon class="cls-24" points="1156.159 342.039 1199.839 342.039 1177.999 279.253 1156.159 342.039"/><rect class="cls-22" x="1174.7902" y="340.9438" width="7.0384" height="28.4725"/><polygon class="cls-25" points="973.603 417.915 932.905 417.915 953.829 333.132 973.603 417.915"/><rect class="cls-26" x="946.5215" y="417.5493" width="6.7326" height="20.6192"/><polygon class="cls-27" points="1027.005 411.443 986.238 411.443 1006.621 345.649 1027.005 411.443"/><rect class="cls-26" x="1006.002" y="411.2944" width="6.6639" height="23.0728"/><polygon class="cls-28" points="961.328 415.719 1002.441 415.719 981.885 364.233 961.328 415.719"/><rect class="cls-26" x="978.8644" y="414.8206" width="6.6249" height="23.3479"/><path class="cls-29" d="M930.527,558.1029s-4.66-.7989-8.5212-1.4646-3.9944-.7989-5.459-.6658-5.3258.3995-5.3258-3.728c0-.7989,3.8612-3.8612,3.8612-4.66a3.3326,3.3326,0,0,1,1.3315-3.0623c1.4646-1.3315,2.53-2.3966,4.46-2.3966s14.18-1.4646,17.5086-2.9292,5.3258-2.2635,7.4561-1.7309.6657,1.7309,8.6544,1.5977,10.3853-1.5294,20.9038-1.7632,22.6346,8.2873,22.9009,16.276-.6657,9.4533-2.7961,15.7111l8.7876,11.1842s-3.9944,4.5269-4.9264,4.66a53.2982,53.2982,0,0,1-6.5241,0,5.5881,5.5881,0,0,0-1.9971.1,3.8073,3.8073,0,0,0,1.2511-2.3577c-.0608-1.1559-4.6844-4.38-4.6844-4.38a18.8663,18.8663,0,0,0,.1825,3.7718c.3042,1.5818-.1825,3.1338-3.0418,2.9661s-9.0037-.2285-10.3421-.8368,2.3118-3.4068,3.711-4.441-.2433-1.7034-.73-4.7452.1825-5.2319-.9126-5.7186-6.0227-1.0342-10.3421-1.0342-8.4562-2.0685-8.7-2.0685,1.7642,4.3194,3.1026,5.5969-1.46,2.4943-.9125,4.7453,1.7642,3.2851.4867,2.92-2.5551-.9734-2.7377-.4867,1.1036.4258.5823,1.3992a12.0542,12.0542,0,0,0-1.0081,1.8859c-.6084,1.3993-1.1559,2.4943-2.2509,2.4943s-10.2813-.6083-10.89-.7909.3042-2.2509,3.1027-2.5551,2.9809-1.0342,2.92-1.3384-7.1787-15.0264-7.1787-15.0264-3.0418,5.7185-3.8326,6.5094-.0609,2.6768-1.8251,2.7985-2.1293-.1217-2.5551.7908-.4259,2.3118-1.7034,1.7643-1.0342-1.3384-1.46-.9126-.365,1.46-2.92,1.7643-3.1027,1.9467-6.3878,1.8251-3.2243-2.7985-3.2243-3.65a2.2561,2.2561,0,0,1,2.2509-1.9468,2.8292,2.8292,0,0,0,2.616-1.095C924.4432,572.0446,928.2155,567.8872,930.527,558.1029Z"/></svg>