<svg id="Layer_1" data-name="Layer 1" viewBox="0 0 1244.4 600" version="1.1" xmlns:xlink="http://www.w3.org/1999/xlink" xmlns="http://www.w3.org/2000/svg"><defs id="defs389"><linearGradient id="linear-gradient" x1="622.2" y1="604.377" x2="622.2" y2="5.469" gradientUnits="userSpaceOnUse"><stop offset=".386" stop-color="#f0a24d" id="stop262"/><stop offset=".793" stop-color="#eb7337" id="stop264"/><stop offset="1" stop-color="#e9592b" id="stop266"/></linearGradient><linearGradient id="linear-gradient-2" x1="409.362" y1="229.302" x2="564.352" y2="410.931" gradientUnits="userSpaceOnUse"><stop offset="0" stop-color="#fcfcfc" id="stop269"/><stop offset=".118" stop-color="#f2f2f2" id="stop271"/><stop offset=".392" stop-color="#e0dfdf" id="stop273"/><stop offset=".679" stop-color="#d5d5d5" id="stop275"/><stop offset="1" stop-color="#d2d1d1" id="stop277"/></linearGradient><linearGradient id="linear-gradient-3" x1="1090.286" y1="268.769" x2="721.876" y2="655.338" gradientUnits="userSpaceOnUse"><stop offset="0" stop-color="#a68b8a" stop-opacity=".5" id="stop280"/><stop offset=".506" stop-color="#a68b8b" id="stop282"/><stop offset=".575" stop-color="#a68b8b" stop-opacity=".964" id="stop284"/><stop offset=".669" stop-color="#a68b8b" stop-opacity=".861" id="stop286"/><stop offset=".776" stop-color="#a68b8b" stop-opacity=".691" id="stop288"/><stop offset=".892" stop-color="#a68b8b" stop-opacity=".457" id="stop290"/><stop offset="1" stop-color="#a68b8b" stop-opacity=".2" id="stop292"/></linearGradient><linearGradient id="linear-gradient-4" x1="738.946" y1="151.5" x2="1023.689" y2="511.12" xlink:href="#linear-gradient-2"/><linearGradient id="linear-gradient-5" x1="497.271" y1="685.166" x2="555.989" y2="475.686" gradientUnits="userSpaceOnUse"><stop offset="0" stop-color="#14987e" id="stop296"/><stop offset=".295" stop-color="#22a288" id="stop298"/><stop offset=".847" stop-color="#46bca4" id="stop300"/><stop offset="1" stop-color="#51c4ac" id="stop302"/></linearGradient><linearGradient id="linear-gradient-6" x1="31.79" y1="224.69" x2="31.79" y2="399.298" gradientUnits="userSpaceOnUse"><stop offset="0" stop-color="#3fbb9f" id="stop305"/><stop offset=".232" stop-color="#3fb59b" id="stop307"/><stop offset=".543" stop-color="#40a48f" id="stop309"/><stop offset=".83" stop-color="#418e80" id="stop311"/></linearGradient><linearGradient id="linear-gradient-7" x1="113.383" y1="207.574" x2="113.383" y2="372.535" gradientUnits="userSpaceOnUse"><stop offset="0" stop-color="#38b99a" id="stop314"/><stop offset=".226" stop-color="#38b396" id="stop316"/><stop offset=".529" stop-color="#39a28a" id="stop318"/><stop offset=".876" stop-color="#3a8676" id="stop320"/><stop offset="1" stop-color="#3a7a6e" id="stop322"/></linearGradient><linearGradient id="linear-gradient-8" x1="239.615" y1="285.617" x2="239.615" y2="436.997" gradientUnits="userSpaceOnUse"><stop offset="0" stop-color="#3fbb9f" id="stop325"/><stop offset=".279" stop-color="#3fb59b" id="stop327"/><stop offset=".654" stop-color="#40a48f" id="stop329"/><stop offset="1" stop-color="#418e80" id="stop331"/></linearGradient><linearGradient id="linear-gradient-9" x1="315.048" y1="300.688" x2="315.048" y2="439.956" xlink:href="#linear-gradient-7"/><linearGradient id="linear-gradient-10" x1="767.991" y1="354.836" x2="767.991" y2="531.565" xlink:href="#linear-gradient-8"/><linearGradient id="linear-gradient-11" x1="850.656" y1="370.997" x2="850.656" y2="535.458" xlink:href="#linear-gradient-7"/><linearGradient id="linear-gradient-12" x1="1103.858" y1="363.485" x2="1103.858" y2="480.976" xlink:href="#linear-gradient-8"/><linearGradient id="linear-gradient-13" x1="1159.405" y1="375.369" x2="1159.405" y2="482.728" xlink:href="#linear-gradient-7"/><linearGradient id="linear-gradient-14" x1="1147.429" y1="241.031" x2="1147.429" y2="344.661" xlink:href="#linear-gradient-8"/><linearGradient id="linear-gradient-15" x1="1202.891" y1="250.551" x2="1202.891" y2="345.153" gradientUnits="userSpaceOnUse"><stop offset="0" stop-color="#259888" id="stop340"/><stop offset=".223" stop-color="#279283" id="stop342"/><stop offset=".524" stop-color="#2c8174" id="stop344"/><stop offset=".867" stop-color="#35655d" id="stop346"/><stop offset="1" stop-color="#395852" id="stop348"/></linearGradient><linearGradient id="linear-gradient-16" x1="1176.178" y1="280.746" x2="1177.905" y2="338.869" gradientUnits="userSpaceOnUse"><stop offset="0" stop-color="#469b88" id="stop351"/><stop offset=".311" stop-color="#459583" id="stop353"/><stop offset=".729" stop-color="#448476" id="stop355"/><stop offset="1" stop-color="#42756b" id="stop357"/></linearGradient><linearGradient id="linear-gradient-17" x1="953.254" y1="333.132" x2="953.254" y2="417.915" gradientUnits="userSpaceOnUse"><stop offset=".388" stop-color="#34937e" id="stop360"/><stop offset="1" stop-color="#537a72" id="stop362"/></linearGradient><linearGradient id="linear-gradient-18" x1="1006.621" y1="340.885" x2="1006.621" y2="419.783" gradientUnits="userSpaceOnUse"><stop offset="0" stop-color="#358e79" id="stop365"/><stop offset=".2" stop-color="#358875" id="stop367"/><stop offset=".468" stop-color="#377768" id="stop369"/><stop offset=".775" stop-color="#395b54" id="stop371"/><stop offset=".821" stop-color="#395650" id="stop373"/></linearGradient><linearGradient id="linear-gradient-19" x1="957.559" y1="537.402" x2="957.876" y2="584.269" gradientUnits="userSpaceOnUse"><stop offset="0" stop-color="#4a2a2a" id="stop376"/><stop offset=".421" stop-color="#4a2a2a" stop-opacity=".971" id="stop378"/><stop offset=".623" stop-color="#4a2a2a" stop-opacity=".869" id="stop380"/><stop offset=".778" stop-color="#4a2a2a" stop-opacity=".693" id="stop382"/><stop offset=".908" stop-color="#4a2a2a" stop-opacity=".446" id="stop384"/><stop offset="1" stop-color="#4a2a2a" stop-opacity=".2" id="stop386"/></linearGradient><style id="style260">.cls-2{fill:#927a7a}.cls-3{fill:url(#linear-gradient-2)}.cls-4{fill:url(#linear-gradient-3)}.cls-5{fill:url(#linear-gradient-4)}.cls-9{fill:url(#linear-gradient-6)}.cls-10{fill:#4f9a8a}.cls-11{fill:url(#linear-gradient-7)}.cls-12{fill:#59bba9}.cls-13{fill:url(#linear-gradient-8)}.cls-14{fill:url(#linear-gradient-9)}.cls-15{fill:url(#linear-gradient-10)}.cls-16{fill:#469586}.cls-17{fill:url(#linear-gradient-11)}.cls-18{fill:url(#linear-gradient-12)}.cls-19{fill:#1d6c5d}.cls-20{fill:url(#linear-gradient-13)}.cls-21{fill:url(#linear-gradient-14)}.cls-22{fill:#0b1b18}.cls-23{fill:url(#linear-gradient-15)}.cls-24{fill:url(#linear-gradient-16)}.cls-25{fill:url(#linear-gradient-17)}.cls-26{fill:#174139}.cls-27{fill:url(#linear-gradient-18)}.cls-28{fill:#589d8f}</style></defs><path id="rect393" style="fill:url(#linear-gradient)" d="M0 0h1244.4v600H0z"/><path d="M1244.4 600V287.206s-101.718 74.318-156.134 99.007c-13.604 5.794-18.895 6.802-27.46-1.008s-21.162-18.383-70.035-4.279-106.817 39.74-162.24 65.089-124.704 64.65-180.127 68.176V600Z" id="path403" style="fill:#fc0"/><path d="M1128.64 600H0V291.927s4.3 2.423 11.2 6.303c10.01 5.63 25.92 14.56 43.7 24.45 35.53 19.76 78.57 43.39 97.23 52.38 34.43 16.61 41.72 17.82 46.17 8.1 4.46-9.72 7.29-23.89 100.04 2.84s157.56 57.51 243.42 90.32c85.86 32.8 164.44 46.17 225.19 34.83s93.16-50.63 138.92-46.98c45.77 3.64 95.99 38.47 137.71 68.04s85.06 67.79 85.06 67.79Z" id="path405" style="fill:#fd5"/><path id="polygon407" style="fill:#fd5" d="M208.89 600H0v-51.229L208.89 600z"/><path d="M930.527 558.103s-4.66-.799-8.521-1.465-3.995-.799-5.46-.666-5.325.4-5.325-3.728c0-.798 3.861-3.86 3.861-4.66a3.333 3.333 0 0 1 1.332-3.062c1.464-1.331 2.53-2.396 4.46-2.396s14.18-1.465 17.508-2.93 5.326-2.263 7.456-1.73.666 1.73 8.655 1.597 10.385-1.53 20.904-1.763 22.634 8.287 22.9 16.276-.665 9.453-2.796 15.711l8.788 11.184s-3.994 4.527-4.926 4.66a53.298 53.298 0 0 1-6.524 0 5.588 5.588 0 0 0-1.998.1 3.807 3.807 0 0 0 1.252-2.357c-.061-1.156-4.685-4.38-4.685-4.38a18.866 18.866 0 0 0 .183 3.771c.304 1.582-.183 3.134-3.042 2.966s-9.004-.228-10.342-.836 2.312-3.407 3.71-4.441-.243-1.704-.73-4.746.183-5.231-.912-5.718-6.023-1.034-10.342-1.034-8.456-2.069-8.7-2.069 1.764 4.32 3.103 5.597-1.46 2.494-.913 4.745 1.764 3.285.487 2.92-2.555-.973-2.738-.486 1.104.425.582 1.399a12.054 12.054 0 0 0-1.008 1.886c-.608 1.4-1.156 2.494-2.25 2.494s-10.282-.608-10.89-.79.304-2.252 3.102-2.556 2.981-1.034 2.92-1.338-7.179-15.027-7.179-15.027-3.041 5.719-3.832 6.51-.061 2.676-1.825 2.798-2.13-.122-2.555.791-.426 2.312-1.704 1.764-1.034-1.338-1.46-.912-.365 1.46-2.92 1.764-3.102 1.947-6.388 1.825-3.224-2.798-3.224-3.65a2.256 2.256 0 0 1 2.251-1.947 2.83 2.83 0 0 0 2.616-1.095c1.035-1.034 4.808-5.192 7.119-14.976Z" id="path481" style="fill:url(#linear-gradient-19)"/></svg>