<svg id="Layer_1" data-name="Layer 1" xmlns="http://www.w3.org/2000/svg" xmlns:xlink="http://www.w3.org/1999/xlink" viewBox="0 0 1244.4 600"><defs><linearGradient id="linear-gradient" x1="622.2" y1="604.377" x2="622.2" y2="5.469" gradientUnits="userSpaceOnUse"><stop offset=".386" stop-color="#f0a24d"/><stop offset=".793" stop-color="#eb7337"/><stop offset="1" stop-color="#e9592b"/></linearGradient><linearGradient id="linear-gradient-2" x1="409.362" y1="229.302" x2="564.352" y2="410.931" gradientUnits="userSpaceOnUse"><stop offset="0" stop-color="#fcfcfc"/><stop offset=".118" stop-color="#f2f2f2"/><stop offset=".392" stop-color="#e0dfdf"/><stop offset=".679" stop-color="#d5d5d5"/><stop offset="1" stop-color="#d2d1d1"/></linearGradient><linearGradient id="linear-gradient-3" x1="1090.286" y1="268.769" x2="721.876" y2="655.338" gradientUnits="userSpaceOnUse"><stop offset="0" stop-color="#a68b8a" stop-opacity=".5"/><stop offset=".506" stop-color="#a68b8b"/><stop offset=".575" stop-color="#a68b8b" stop-opacity=".964"/><stop offset=".669" stop-color="#a68b8b" stop-opacity=".861"/><stop offset=".776" stop-color="#a68b8b" stop-opacity=".691"/><stop offset=".892" stop-color="#a68b8b" stop-opacity=".457"/><stop offset="1" stop-color="#a68b8b" stop-opacity=".2"/></linearGradient><linearGradient id="linear-gradient-4" x1="738.946" y1="151.5" x2="1023.689" y2="511.12" xlink:href="#linear-gradient-2"/><linearGradient id="linear-gradient-5" x1="497.271" y1="685.166" x2="555.989" y2="475.686" gradientUnits="userSpaceOnUse"><stop offset="0" stop-color="#14987e"/><stop offset=".295" stop-color="#22a288"/><stop offset=".847" stop-color="#46bca4"/><stop offset="1" stop-color="#51c4ac"/></linearGradient><linearGradient id="linear-gradient-6" x1="31.79" y1="224.69" x2="31.79" y2="399.298" gradientUnits="userSpaceOnUse"><stop offset="0" stop-color="#3fbb9f"/><stop offset=".232" stop-color="#3fb59b"/><stop offset=".543" stop-color="#40a48f"/><stop offset=".83" stop-color="#418e80"/></linearGradient><linearGradient id="linear-gradient-7" x1="113.383" y1="207.574" x2="113.383" y2="372.535" gradientUnits="userSpaceOnUse"><stop offset="0" stop-color="#38b99a"/><stop offset=".226" stop-color="#38b396"/><stop offset=".529" stop-color="#39a28a"/><stop offset=".876" stop-color="#3a8676"/><stop offset="1" stop-color="#3a7a6e"/></linearGradient><linearGradient id="linear-gradient-8" x1="239.615" y1="285.617" x2="239.615" y2="436.997" gradientUnits="userSpaceOnUse"><stop offset="0" stop-color="#3fbb9f"/><stop offset=".279" stop-color="#3fb59b"/><stop offset=".654" stop-color="#40a48f"/><stop offset="1" stop-color="#418e80"/></linearGradient><linearGradient id="linear-gradient-9" x1="315.048" y1="300.688" x2="315.048" y2="439.956" xlink:href="#linear-gradient-7"/><linearGradient id="linear-gradient-10" x1="767.991" y1="354.836" x2="767.991" y2="531.565" xlink:href="#linear-gradient-8"/><linearGradient id="linear-gradient-11" x1="850.656" y1="370.997" x2="850.656" y2="535.458" xlink:href="#linear-gradient-7"/><linearGradient id="linear-gradient-12" x1="1103.858" y1="363.485" x2="1103.858" y2="480.976" xlink:href="#linear-gradient-8"/><linearGradient id="linear-gradient-13" x1="1159.405" y1="375.369" x2="1159.405" y2="482.728" xlink:href="#linear-gradient-7"/><linearGradient id="linear-gradient-14" x1="1147.429" y1="241.031" x2="1147.429" y2="344.661" xlink:href="#linear-gradient-8"/><linearGradient id="linear-gradient-15" x1="1202.891" y1="250.551" x2="1202.891" y2="345.153" gradientUnits="userSpaceOnUse"><stop offset="0" stop-color="#259888"/><stop offset=".223" stop-color="#279283"/><stop offset=".524" stop-color="#2c8174"/><stop offset=".867" stop-color="#35655d"/><stop offset="1" stop-color="#395852"/></linearGradient><linearGradient id="linear-gradient-16" x1="1176.178" y1="280.746" x2="1177.905" y2="338.869" gradientUnits="userSpaceOnUse"><stop offset="0" stop-color="#469b88"/><stop offset=".311" stop-color="#459583"/><stop offset=".729" stop-color="#448476"/><stop offset="1" stop-color="#42756b"/></linearGradient><linearGradient id="linear-gradient-17" x1="953.254" y1="333.132" x2="953.254" y2="417.915" gradientUnits="userSpaceOnUse"><stop offset=".388" stop-color="#34937e"/><stop offset="1" stop-color="#537a72"/></linearGradient><linearGradient id="linear-gradient-18" x1="1006.621" y1="340.885" x2="1006.621" y2="419.783" gradientUnits="userSpaceOnUse"><stop offset="0" stop-color="#358e79"/><stop offset=".2" stop-color="#358875"/><stop offset=".468" stop-color="#377768"/><stop offset=".775" stop-color="#395b54"/><stop offset=".821" stop-color="#395650"/></linearGradient><linearGradient id="linear-gradient-19" x1="957.559" y1="537.402" x2="957.876" y2="584.269" gradientUnits="userSpaceOnUse"><stop offset="0" stop-color="#4a2a2a"/><stop offset=".421" stop-color="#4a2a2a" stop-opacity=".971"/><stop offset=".623" stop-color="#4a2a2a" stop-opacity=".869"/><stop offset=".778" stop-color="#4a2a2a" stop-opacity=".693"/><stop offset=".908" stop-color="#4a2a2a" stop-opacity=".446"/><stop offset="1" stop-color="#4a2a2a" stop-opacity=".2"/></linearGradient><style>.cls-10{fill:#4f9a8a}.cls-12{fill:#59bba9}.cls-16{fill:#469586}.cls-19{fill:#1d6c5d}.cls-22{fill:#0b1b18}.cls-26{fill:#174139}</style></defs><path style="fill:url(#linear-gradient)" d="M0 0h1244.4v600H0z"/><path d="M716.85 600H142.34l280.87-385.96c.02-.03.04-.07.06-.1l5.43-7.46a.608.608 0 0 1 .05-.06l138.46 189.15Z" style="fill:#927a7a"/><path d="M567.21 395.57c-34.55 2.21-52.54-17.61-60.64-38.27-8.1-20.65-24.3-34.02-34.83-37.67-10.53-3.64-35.24-2.83-55.09-39.69-14.36-26.68-1.59-53.26 6.56-65.9.02-.03.04-.07.06-.1a73.116 73.116 0 0 1 5.43-7.46.608.608 0 0 1 .05-.06Z" style="fill:url(#linear-gradient-2)"/><path d="M1218.04 600H400.89l400.63-492.28 6.82-8.39.03-.03 289.01 353.23Z" style="fill:url(#linear-gradient-3)"/><path d="M1097.38 452.53c-10.28 18.15-39.6 28.39-106.53 15.5-182.63-35.17-188.05-79.37-184.89-101.46 3.16-22.1 25.71-34.28 22.55-58.63s-27.96-41.94-46-77.56c-28.03-50.74 4.06-102.78 19.01-122.66 3.83-5.09 6.53-8.07 6.82-8.39l.03-.03Z" style="fill:url(#linear-gradient-4)"/><path d="M1244.4 600V287.206s-101.718 74.318-156.134 99.007c-13.604 5.794-18.895 6.802-27.46-1.008s-21.162-18.383-70.035-4.279-106.817 39.74-162.24 65.089-124.704 64.65-180.127 68.176V600Z" style="fill:#198f7b"/><path d="M1128.64 600H0V291.927s4.3 2.423 11.2 6.303c10.01 5.63 25.92 14.56 43.7 24.45 35.53 19.76 78.57 43.39 97.23 52.38 34.43 16.61 41.72 17.82 46.17 8.1 4.46-9.72 7.29-23.89 100.04 2.84s157.56 57.51 243.42 90.32c85.86 32.8 164.44 46.17 225.19 34.83s93.16-50.63 138.92-46.98c45.77 3.64 95.99 38.47 137.71 68.04s85.06 67.79 85.06 67.79Z" style="fill:url(#linear-gradient-5)"/><path style="fill:#0d927a" d="M208.89 600H0v-51.229L208.89 600z"/><path style="fill:url(#linear-gradient-6)" d="M63.58 369.65H0l.004-11.614L11.2 298.23l19.71-105.29L54.9 322.68l8.68 46.97z"/><path class="cls-10" d="M25.664 368.887h11.123v42.976H25.664z"/><path style="fill:url(#linear-gradient-7)" d="M145.751 355.098H81.014l32.369-137.565 32.368 137.565z"/><path class="cls-10" d="M108.092 354.787h10.582v48.241h-10.582z"/><path class="cls-12" d="M42.421 364.124h65.671L75.257 257.06 42.421 364.124z"/><path class="cls-10" d="M70.433 362.257h10.582v48.552H70.433z"/><path style="fill:url(#linear-gradient-8)" d="M268.416 436.997h-57.601l29.614-151.38 27.987 151.38z"/><path class="cls-10" d="M235.935 436.343h9.529v36.816h-9.529z"/><path style="fill:url(#linear-gradient-9)" d="M342.375 425.235h-54.654l27.327-116.139 27.327 116.139z"/><path class="cls-10" d="M310.581 424.973h8.934v40.728h-8.934z"/><path class="cls-12" d="M253.041 432.402h56.08l-28.04-91.429-28.04 91.429z"/><path class="cls-10" d="M276.961 430.807h9.037v41.462h-9.037z"/><path style="fill:url(#linear-gradient-10)" d="M801.615 531.565h-67.247l34.573-176.729 32.674 176.729z"/><path class="cls-16" d="M763.695 530.803h11.124v42.981h-11.124z"/><path style="fill:url(#linear-gradient-11)" d="M882.926 518.075h-64.54l32.27-137.149 32.27 137.149z"/><path class="cls-16" d="M845.381 517.764h10.55v48.095h-10.55z"/><path class="cls-12" d="M778.548 526.986h65.828l-32.914-107.32-32.914 107.32z"/><path class="cls-10" d="M806.626 525.115h10.607v48.669h-10.607z"/><path style="fill:url(#linear-gradient-12)" d="M1126.211 480.976h-44.706l22.984-117.492 21.722 117.492z"/><path class="cls-19" d="M1096.463 480.469h7.396v28.574h-7.396z"/><path style="fill:url(#linear-gradient-13)" d="M1181.493 471.38h-44.176l22.088-89.529 22.088 89.529z"/><path class="cls-19" d="M1158.211 471.178h7.221v31.396h-7.221z"/><path class="cls-12" d="M1111.456 477.76h44.005l-22.002-71.743-22.003 71.743z"/><path class="cls-19" d="M1130.226 476.509h7.091v32.535h-7.091z"/><path style="fill:url(#linear-gradient-14)" d="M1168.329 344.661h-41.801l21.491-103.63 20.31 103.63z"/><path class="cls-22" d="M1141.216 339.605h8.18v29.811h-8.18z"/><path style="fill:url(#linear-gradient-15)" d="M1223.408 335.154h-41.033l20.516-78.892 20.517 78.892z"/><path class="cls-22" d="M1202.891 334.975h6.707v27.666h-6.707z"/><path style="fill:url(#linear-gradient-16)" d="M1156.159 342.039h43.68l-21.84-62.786-21.84 62.786z"/><path class="cls-22" d="M1174.79 340.944h7.038v28.473h-7.038z"/><path style="fill:url(#linear-gradient-17)" d="M973.603 417.915h-40.698l20.924-84.783 19.774 84.783z"/><path class="cls-26" d="M946.521 417.549h6.733v20.619h-6.733z"/><path style="fill:url(#linear-gradient-18)" d="M1027.005 411.443h-40.767l20.383-65.794 20.384 65.794z"/><path class="cls-26" d="M1006.002 411.294h6.664v23.073h-6.664z"/><path style="fill:#589d8f" d="M961.328 415.719h41.113l-20.556-51.486-20.557 51.486z"/><path class="cls-26" d="M978.864 414.821h6.625v23.348h-6.625z"/><path d="M930.527 558.103s-4.66-.799-8.521-1.465-3.995-.799-5.46-.666-5.325.4-5.325-3.728c0-.798 3.861-3.86 3.861-4.66a3.333 3.333 0 0 1 1.332-3.062c1.464-1.331 2.53-2.396 4.46-2.396s14.18-1.465 17.508-2.93 5.326-2.263 7.456-1.73.666 1.73 8.655 1.597 10.385-1.53 20.904-1.763 22.634 8.287 22.9 16.276-.665 9.453-2.796 15.711l8.788 11.184s-3.994 4.527-4.926 4.66a53.298 53.298 0 0 1-6.524 0 5.588 5.588 0 0 0-1.998.1 3.807 3.807 0 0 0 1.252-2.357c-.061-1.156-4.685-4.38-4.685-4.38a18.866 18.866 0 0 0 .183 3.771c.304 1.582-.183 3.134-3.042 2.966s-9.004-.228-10.342-.836 2.312-3.407 3.71-4.441-.243-1.704-.73-4.746.183-5.231-.912-5.718-6.023-1.034-10.342-1.034-8.456-2.069-8.7-2.069 1.764 4.32 3.103 5.597-1.46 2.494-.913 4.745 1.764 3.285.487 2.92-2.555-.973-2.738-.486 1.104.425.582 1.399a12.054 12.054 0 0 0-1.008 1.886c-.608 1.4-1.156 2.494-2.25 2.494s-10.282-.608-10.89-.79.304-2.252 3.102-2.556 2.981-1.034 2.92-1.338-7.179-15.027-7.179-15.027-3.041 5.719-3.832 6.51-.061 2.676-1.825 2.798-2.13-.122-2.555.791-.426 2.312-1.704 1.764-1.034-1.338-1.46-.912-.365 1.46-2.92 1.764-3.102 1.947-6.388 1.825-3.224-2.798-3.224-3.65a2.256 2.256 0 0 1 2.251-1.947 2.83 2.83 0 0 0 2.616-1.095c1.035-1.034 4.808-5.192 7.119-14.976Z" style="fill:url(#linear-gradient-19)"/></svg>