<svg width="26" height="26" viewBox="0 0 26 26" fill="none" xmlns="http://www.w3.org/2000/svg">
<path d="M2.5 21.125V10.3502L13 6.53203L23.5 10.3502V21.125C23.5 23.5419 21.5419 25.5 19.125 25.5H6.875C4.45814 25.5 2.5 23.5419 2.5 21.125Z" fill="#F9D373" stroke="#BA9B48"/>
<path d="M7.75 19L6 16L7.75 13H11.25L13 16L11.25 19H7.75ZM18.25 23H14.75L13 20L14.75 17H18.25L20 20L18.25 23Z" fill="#DEAA49"/>
<path d="M18.833 10L20 12L18.25 15H14.75L13 12L14.016 10.39L18.833 10Z" fill="#DEAA49"/>
<path d="M22 1H4C3.449 1 3 1.449 3 2V5C3 5.551 3.449 6 4 6H22C22.551 6 23 5.551 23 5V2C23 1.449 22.551 1 22 1ZM25 10C25 10 20.318 12.278 17 10C14.273 11.253 11.763 11.414 9 10C5.055 12.278 1 10 1 10L3 6H23L25 10Z" fill="white" stroke="#66798F" stroke-width="2" stroke-miterlimit="10" stroke-linecap="round" stroke-linejoin="round"/>
</svg>
