<svg width="512" height="512" xmlns="http://www.w3.org/2000/svg">
 <g>
  <title>Layer 1</title>
  <path transform="rotate(90 257 256)" stroke="#000000" id="svg_9" d="m57.94659,22.49998l402.81673,0l0,0c52.77014,0 42.88083,107.01903 42.88083,235.97752c0,128.95846 9.88929,231.02253 -42.88083,231.02253l-402.81673,0l0,0c-52.77008,0 -48.22782,-99.92742 -48.22782,-228.88587c0,-128.95854 -4.54225,-238.11418 48.22782,-238.11418z" stroke-width="11" fill="none"/>
  <path stroke="#000000" id="svg_11" d="m256.60373,163.94896c-5.42866,0 -9.80692,4.62036 -9.80692,10.31332l0,95.09911l-59.35196,27.26842c-4.96727,2.28956 -7.22512,8.37441 -5.0458,13.59295c1.60994,3.86749 5.20287,6.17769 8.98231,6.17769c1.31545,0 2.66033,-0.27846 3.93651,-0.87664l65.04567,-29.88799c0.04908,-0.02063 0.08835,-0.04126 0.12761,-0.06188l0.03927,-0.02063c0.14725,-0.06188 0.22578,-0.20628 0.36322,-0.25784c1.02094,-0.5363 1.97316,-1.1654 2.73887,-2.01109c0.33376,-0.35065 0.5203,-0.80443 0.77552,-1.20666c0.47122,-0.66005 0.99149,-1.30978 1.27618,-2.10392c0.2356,-0.6188 0.25523,-1.28917 0.37303,-1.94921c0.12761,-0.66005 0.37303,-1.2479 0.37303,-1.91828l0,-101.85433c0,-5.68263 -4.39789,-10.303 -9.82655,-10.303l0.00001,-0.00001l-0.00001,0zm153.39627,17.60484c0,-39.52063 -30.48095,-71.5538 -68.10849,-71.5538c-19.02482,0 -36.18448,8.2094 -48.49466,21.42075c-11.75062,-3.28996 -24.04117,-5.20822 -36.7833,-5.20822c-13.09552,0 -25.71983,2.01109 -37.76498,5.47638c-12.35927,-13.35574 -29.60727,-21.68891 -48.74008,-21.68891c-37.61772,0 -68.10849,32.03317 -68.10849,71.5538c0,19.02808 7.12696,36.27193 18.66161,49.09139c-4.34881,14.3355 -6.72446,29.59923 -6.72446,45.4611c0,82.78499 63.87749,149.89376 142.6764,149.89376c78.79892,0 142.6764,-67.10876 142.6764,-149.89376c0,-16.24347 -2.54253,-31.83721 -7.08769,-46.49244c11.03401,-12.6957 17.79774,-29.52703 17.79774,-48.06006l-0.00001,0.00001l0.00002,0zm-153.38645,213.49598c-62.44424,0 -113.2262,-53.3611 -113.2262,-118.94349c0,-65.5927 50.78197,-118.9538 113.2262,-118.9538c62.44424,0 113.21638,53.35079 113.21638,118.9538c0,65.603 -50.79178,118.94349 -113.21638,118.94349z" stroke-width="6" fill="#ffff00"/>
  <path id="svg_12" d="m910.30024,193.42483c6.26273,-6.73692 10.84229,-15.26812 14.67955,-23.91232c2.3441,-3.44771 0.12482,-6.46393 -3.06798,-3.54033c-8.20545,6.10708 -19.37495,8.20137 -28.25905,2.62973c-10.04313,-5.78903 -14.57205,-19.55473 -12.29335,-31.54932c1.44307,-12.15548 9.37967,-21.68345 17.99695,-28.52764c9.89883,-7.89348 20.58833,-14.66969 29.63528,-23.80998c3.7775,0.08441 6.6204,6.69215 10.68581,8.4407c10.79477,8.96264 23.58754,15.55987 32.0881,27.54457c4.29464,6.82901 6.74232,15.2381 7.01559,23.55059c-1.30848,11.27236 -7.33827,23.16051 -17.73671,26.37066c-8.98913,3.03185 -18.23757,-0.81316 -26.07097,-5.70484c-0.95682,-0.2289 -4.46631,-3.31098 -3.07541,-0.91574c4.68305,10.71279 9.81411,21.35034 17.24519,30.04853c0.43678,1.09903 3.86229,3.70648 2.03923,3.66505c-15.25817,0 -30.5163,0 -45.77448,0c1.63071,-1.42988 3.26148,-2.85979 4.89226,-4.28967l0,0l-0.00002,0.00002l0.00001,-0.00001z" stroke-width="5" fill="#fff" stroke="#000000"/>
  <path fill="#bf0000" d="m75.52517,480.32374c6.58225,-6.55806 11.39547,-14.86277 15.42851,-23.27748c2.46369,-3.35618 0.13119,-6.29232 -3.22451,-3.44634c-8.62409,5.94494 -20.36347,7.98363 -29.70084,2.55992c-10.55554,-5.63534 -15.31552,-19.03557 -12.92057,-30.71173c1.5167,-11.83276 9.85823,-21.10778 18.91516,-27.77026c10.40387,-7.68392 21.63875,-14.28022 31.14729,-23.17785c3.97023,0.08217 6.95818,6.51448 11.23101,8.21661c11.34552,8.72469 24.79099,15.14677 33.72525,26.8133c4.51375,6.64771 7.08632,14.83354 7.37352,22.92535c-1.37525,10.9731 -7.71268,22.54563 -18.64165,25.67055c-9.44776,2.95136 -19.16807,-0.79157 -27.40113,-5.55338c-1.00564,-0.22282 -4.69419,-3.22307 -3.23232,-0.89143c4.92199,10.42838 10.31483,20.78352 18.12505,29.25078c0.45906,1.06985 4.05934,3.60808 2.14327,3.56775c-16.03665,0 -32.07325,0 -48.10991,0c1.71391,-1.39192 3.42789,-2.78387 5.14186,-4.17578l0,0l0.00001,-0.00001z" id="svg_3" stroke-width="5" stroke="#bf0000"/>
  <path fill="#bf0000" stroke-width="5" d="m383.5,90.28061c9.21849,-20.65534 25.83895,-38.28468 39.97837,-55.7806c16.44821,11.22778 30.65854,35.92869 43.02162,53.13234c-11.02704,19.89908 -26.90025,38.0217 -41.19992,55.86765c-15.4153,-16.32738 -28.5979,-34.98173 -41.80008,-53.21939l0,0l0.00001,0z" id="svg_4" stroke="#bf0000"/>
  <path fill="#000000" stroke-width="5" d="m78.24194,118.30171c-27.12652,-21.20938 -37.66301,-35.03631 -37.74162,-51.46074c-0.07168,-14.9729 11.901,-29.42394 24.30859,-29.34061c6.19578,0.0417 19.48614,5.55255 24.19231,10.03148c2.37125,2.25675 3.49438,2.03421 8.77371,-1.73841c14.36807,-10.26748 28.39864,-10.48299 37.48546,-0.57573c14.52266,15.83387 11.87864,34.74243 -7.60064,54.35571c-10.3563,10.42755 -32.97221,28.92662 -35.36401,28.92662c-0.7278,0 -7.42895,-4.77386 -14.89147,-10.60854l0.83767,0.41024l0,-0.00002z" id="svg_6" stroke="#000000"/>
  <path fill="#000000" stroke-width="5" d="m396.24542,477.47634c6.50043,-6.14823 12.0172,-13.47108 14.34738,-21.78534c-6.96836,4.79851 -13.35939,12.51663 -23.07989,12.22423c-7.33838,0.38148 -16.08005,0.38794 -21.24568,-5.17113c-11.54369,-8.40786 -14.64465,-25.21245 -5.16548,-35.91263c6.48679,-7.72595 17.81416,-11.00196 28.20941,-9.84316c6.54983,-2.51722 -1.28107,-8.89106 -2.06859,-12.86901c-4.87482,-14.42952 6.60942,-31.73746 23.49608,-33.3997c12.11207,-1.57498 23.95262,5.52688 29.87924,14.74357c3.2207,6.44909 1.5426,13.76835 0.79118,20.45884c-2.53038,3.36222 -9.01097,11.4963 0.23707,10.85561c9.14366,-0.13107 18.79947,2.30032 24.82889,8.88622c8.8191,8.86988 9.62806,23.52743 0.75514,32.59082c-4.6935,5.52045 -11.73653,9.93879 -19.70797,9.6928c-7.80217,0.71342 -16.25076,-0.81969 -21.7834,-6.2043c-2.35967,-1.49766 -8.14167,-7.15614 -8.13967,-5.91522c5.77926,10.90525 12.31433,22.23022 23.87547,28.9879c4.1307,3.00832 -6.29169,0.94006 -8.81477,1.55321c-15.28695,0.01224 -30.57384,0.02471 -45.86078,0.03701c3.14877,-2.97662 6.29775,-5.9531 9.44638,-8.92972l0,-0.00001l-0.00001,0.00001z" id="svg_7" stroke="#000000"/>
  <path fill="#fff" stroke="#bfbf00" stroke-width="6" opacity="NaN" d="m70,156" id="svg_18"/>
 </g>

</svg>