<svg width="26" height="26" fill="none" xmlns="http://www.w3.org/2000/svg"><path fill-rule="evenodd" clip-rule="evenodd" d="M20 12l-1.75 3h-3.5L13 12l.508-.805L12 11l-3-1-5 1-2-1v11.125A4.874 4.874 0 006.875 26h12.25A4.874 4.874 0 0024 21.125V10l-2.5 1h-2.084L20 12zM6 16l1.75 3h3.5L13 16l-1.75-3h-3.5L6 16zm8.75 7h3.5L20 20l-1.75-3h-3.5L13 20l1.75 3z" fill="#5E5E5E"/><path d="M22 1H4c-.551 0-1 .449-1 1v3c0 .551.449 1 1 1h18c.551 0 1-.449 1-1V2c0-.551-.449-1-1-1zm3 9s-4.682 2.278-8 0c-2.727 1.253-5.237 1.414-8 0-3.945 2.278-8 0-8 0l2-4h20l2 4z" stroke="#5E5E5E" stroke-width="2" stroke-miterlimit="10" stroke-linecap="round" stroke-linejoin="round"/></svg>