<svg width="26" height="26" fill="none" xmlns="http://www.w3.org/2000/svg"><path d="M2.5 21.125V10.35L13 6.532l10.5 3.818v10.775a4.374 4.374 0 01-4.375 4.375H6.875A4.374 4.374 0 012.5 21.125z" fill="#F9D373" stroke="#BA9B48"/><path d="M7.75 19L6 16l1.75-3h3.5L13 16l-1.75 3h-3.5zm10.5 4h-3.5L13 20l1.75-3h3.5L20 20l-1.75 3zm.583-13L20 12l-1.75 3h-3.5L13 12l1.016-1.61 4.817-.39z" fill="#DEAA49"/><path d="M22 1H4c-.551 0-1 .449-1 1v3c0 .551.449 1 1 1h18c.551 0 1-.449 1-1V2c0-.551-.449-1-1-1zm3 9s-4.682 2.278-8 0c-2.727 1.253-5.237 1.414-8 0-3.945 2.278-8 0-8 0l2-4h20l2 4z" fill="#fff" stroke="#66798F" stroke-width="2" stroke-miterlimit="10" stroke-linecap="round" stroke-linejoin="round"/></svg>